<svg width="130" height="80" viewBox="0 0 130 80" fill="none" xmlns="http://www.w3.org/2000/svg">
<rect y="12.3288" width="129.589" height="67.6712" fill="#D9D9D9"/>
<circle cx="27.9452" cy="55.3425" r="20.5479" fill="#242424"/>
<path d="M122.192 55.3425C122.192 66.6908 112.992 75.8904 101.644 75.8904C90.2956 75.8904 81.0959 66.6908 81.0959 55.3425C81.0959 43.9942 90.2956 34.7946 101.644 34.7946C112.992 34.7946 122.192 43.9942 122.192 55.3425Z" fill="#242424"/>
<rect x="18.9041" width="91.7808" height="6.84931" fill="#242424"/>
<rect x="110.685" width="3.0137" height="12.3288" fill="#929292"/>
<rect x="15.8904" width="3.0137" height="12.3288" fill="#929292"/>
<circle cx="10.9589" cy="20.8219" r="4.93151" fill="#7B7B7B"/>
<circle cx="25.4795" cy="20.8219" r="4.93151" fill="#7B7B7B"/>
<circle cx="103.562" cy="20.8219" r="4.93151" fill="#7B7B7B"/>
<circle cx="115.616" cy="20.8219" r="4.93151" fill="#7B7B7B"/>
<rect x="35.6165" y="15.8904" width="58.0822" height="10.137" fill="#242424"/>
<rect x="51" y="37" width="27" height="41" fill="#7B7B7B"/>
<rect x="54" y="43" width="21" height="11" fill="white"/>
<ellipse cx="58.8333" cy="48.5" rx="3.33333" ry="3.23529" fill="#D6D6D6"/>
<ellipse cx="58.793" cy="48.4609" rx="1.09765" ry="1.06537" fill="#7B7B7B"/>
<ellipse cx="70.1666" cy="48.5" rx="3.33333" ry="3.23529" fill="#D6D6D6"/>
<ellipse cx="70.1263" cy="48.4609" rx="1.09765" ry="1.06537" fill="#7B7B7B"/>
<rect x="63" y="47.853" width="3" height="0.970588" fill="#242424"/>
</svg>
