<svg width="315" height="315" viewBox="0 0 315 315" fill="none" xmlns="http://www.w3.org/2000/svg">
<rect width="315" height="315" fill="#D9D9D9"/>
<rect x="26" y="26" width="263" height="216" fill="black"/>
<rect x="85" y="269" width="144" height="4" fill="#7B7B7B"/>
<circle cx="47.5" cy="270.5" r="10.5" fill="#7B7B7B"/>
<circle cx="266.5" cy="270.5" r="10.5" fill="#7B7B7B"/>
<path d="M56 155V148.6H81.6V142.2H59.2V139H56V126.2H59.2V123H91.2V129.4H65.6V135.8H88V139H91.2V151.8H88V155H56ZM110.425 155V129.4H97.625V123H132.825V129.4H120.025V155H110.425ZM139.25 155V126.2H142.45V123H168.05V126.2H171.25V155H161.65V145.4H148.85V155H139.25ZM161.65 129.4H148.85V139H161.65V129.4ZM206.425 126.2H209.625V142.2H206.425V145.4H209.625V155H200.025V145.4H187.225V155H177.625V123H206.425V126.2ZM187.225 139H200.025V129.4H187.225V139ZM228.8 155V129.4H216V123H251.2V129.4H238.4V155H228.8Z" fill="white"/>
</svg>
